<?xml version="1.0" encoding="utf-8"?>
<!-- Generator: Adobe Illustrator 19.2.1, SVG Export Plug-In . SVG Version: 6.00 Build 0)  -->
<svg version="1.1" id="Capa_1" xmlns="http://www.w3.org/2000/svg" xmlns:xlink="http://www.w3.org/1999/xlink" x="0px" y="0px"
	 viewBox="0 0 64 64" style="enable-background:new 0 0 64 64;" xml:space="preserve">
<style type="text/css">
	.st0{fill:#FFFFFF;}
</style>
<title>serv</title>
<path class="st0" d="M23.9,21.6L20,18c1.5-2.8,0.5-6.3-2.3-7.8s-6.3-0.5-7.8,2.3s-0.5,6.3,2.3,7.8c1.8,1,4.1,0.9,5.8-0.2l3.9,3.7
	C22.5,23,23.1,22.3,23.9,21.6L23.9,21.6L23.9,21.6z"/>
<path class="st0" d="M40.4,21.2l5.2-8.7c3,0.8,6.2-1,7-4c0.8-3-1-6.2-4-7c-3-0.8-6.2,1-7,4c-0.5,2,0,4.1,1.5,5.5l-5.2,8.7
	C38.7,20.1,39.6,20.6,40.4,21.2L40.4,21.2L40.4,21.2z"/>
<path class="st0" d="M58.2,28.5c-2.4,0-4.6,1.5-5.4,3.8l-7.2-0.7c0,0,0,0.1,0,0.2c0,0.9-0.1,1.8-0.3,2.7l7.2,0.7
	c0.5,3.1,3.5,5.3,6.6,4.8c3.1-0.5,5.3-3.5,4.8-6.6C63.5,30.5,61,28.5,58.2,28.5L58.2,28.5L58.2,28.5z"/>
<path class="st0" d="M38.4,51.2l-1.6-7c-0.9,0.3-1.9,0.5-2.8,0.7l1.6,7c-2.8,1.5-3.9,5-2.4,7.8c1.5,2.8,5,3.9,7.8,2.4
	c2.8-1.5,3.9-5,2.4-7.8C42.3,52.4,40.5,51.2,38.4,51.2L38.4,51.2L38.4,51.2z"/>
<path class="st0" d="M19.5,34.5l-8.9,3c-1.7-2.7-5.3-3.4-8-1.7s-3.4,5.3-1.7,8c1.7,2.7,5.3,3.4,8,1.7c1.6-1.1,2.6-2.9,2.6-4.8
	c0-0.1,0-0.3,0-0.4l9-3C20.1,36.4,19.8,35.4,19.5,34.5L19.5,34.5L19.5,34.5z"/>
<path class="st0" d="M42.3,31.7c0,5.5-4.4,9.9-9.9,9.9s-9.9-4.4-9.9-9.9s4.4-9.9,9.9-9.9C37.9,21.8,42.3,26.2,42.3,31.7
	C42.3,31.7,42.3,31.7,42.3,31.7L42.3,31.7z"/>
</svg>
