<?xml version="1.0" encoding="utf-8"?>
<!-- Generator: Adobe Illustrator 19.2.1, SVG Export Plug-In . SVG Version: 6.00 Build 0)  -->
<svg version="1.1" id="Capa_1" xmlns="http://www.w3.org/2000/svg" xmlns:xlink="http://www.w3.org/1999/xlink" x="0px" y="0px"
	 viewBox="0 0 64 64" style="enable-background:new 0 0 64 64;" xml:space="preserve">
<style type="text/css">
	.st0{fill:#FFFFFF;}
</style>
<title>serv</title>
<path class="st0" d="M61.6,53.5C59,49.7,56,46.2,52.7,43c-2-2-4.1-4-6.1-5.6c-0.4-0.3-1-0.3-1.3,0.1c-0.1,0.1-0.1,0.2-0.2,0.3
	c-0.3,0.9-0.8,1.6-1.5,2.3c-0.5,0.5-1.1,1-1.7,1.3c-0.5,0.2-0.6,0.8-0.4,1.2c0,0.1,0.1,0.1,0.1,0.2c1.6,1.9,3.5,3.9,5.4,5.9
	C53.7,55.3,60.1,60,62.7,60c0.3,0,0.7-0.1,0.9-0.3C64.7,58.7,63.1,55.7,61.6,53.5L61.6,53.5L61.6,53.5z"/>
<path class="st0" d="M34.6,34.5c0.2,1.2,0.5,2.4,1,3.5c0.6,1.6,2,2.7,3.7,2.8c1.3-0.1,2.5-0.7,3.4-1.7c1.6-1.4,2.1-3.6,1.3-5.6
	c-1-2.5-4-4.1-7.6-4.1c-0.8,0-1.6,0.1-2.4,0.2c-0.5,0.1-0.8,0.6-0.7,1.1c0,0.2,0.1,0.3,0.2,0.4C34.2,32.1,34.6,33.3,34.6,34.5
	L34.6,34.5L34.6,34.5z"/>
<path class="st0" d="M58.5,4H0.9C0.4,4,0,4.4,0,4.9c0,0,0,0,0,0V44c0,0.5,0.4,0.9,0.9,0.9h39.5l-1.9-2.4c-3.8,0-5-3.7-5.3-3.7H6.1
	V10.1h47.2v28.7h-2.2l5.9,6.1h1.5c0.5,0,0.9-0.4,0.9-0.9V4.9C59.4,4.4,59,4,58.5,4L58.5,4z"/>
<path class="st0" d="M31.9,28.3c0.2,0.2,0.6,0.3,0.9,0.2c0.6-0.2,1.4-0.4,2.2-0.6c0.2,0,0.4-0.2,0.5-0.3c0.2-0.3,0.5-0.5,0.7-0.8
	c0.9-1,2.2-2.4,1.6-4.1c-0.3-0.8-0.9-1.4-1.6-1.7c-0.4-0.2-0.9-0.3-1.4-0.3c-1.8,0-4,1.1-6.4,2.2c-1.2,0.6-2.5,1.2-3.7,1.6
	c0.3-0.7,0.6-1.4,1-2c0.6-1,1.1-2,1.5-3.1c0.6-1.4,0.2-3-1-3.9l0,0c-0.6-0.4-1.3-0.7-2-0.7c-2,0-4.1,1.8-5.8,3.3
	c-0.7,0.6-1.2,1-1.6,1.3c-0.3,0.2-0.4,0.6-0.4,0.9l0.4,1.8c0.1,0.5,0.6,0.8,1.1,0.7c0.1,0,0.2,0,0.2-0.1c0.9-0.6,1.8-1.2,2.6-2
	c0.7-0.7,1.5-1.3,2.3-1.9c0.2-0.2,0.5-0.3,0.7-0.4c-0.3,0.8-0.7,1.5-1.1,2.3c-0.6,1-1.1,2-1.5,3.1c-0.6,1.4,0,3.1,1.4,3.9
	c0.5,0.3,1,0.4,1.6,0.4c1.6,0,3.6-1,5.9-2.1c1.1-0.5,2.3-1.1,3.3-1.5l0.2-0.1c-0.8,0.8-1.4,1.8-1.8,2.9
	C31.5,27.7,31.6,28.1,31.9,28.3L31.9,28.3L31.9,28.3z"/>
</svg>
