<?xml version="1.0" encoding="utf-8"?>
<!-- Generator: Adobe Illustrator 19.2.1, SVG Export Plug-In . SVG Version: 6.00 Build 0)  -->
<svg version="1.1" id="Capa_1" xmlns="http://www.w3.org/2000/svg" xmlns:xlink="http://www.w3.org/1999/xlink" x="0px" y="0px"
	 viewBox="0 0 64 64" style="enable-background:new 0 0 64 64;" xml:space="preserve">
<style type="text/css">
	.st0{fill:#FFFFFF;}
</style>
<title>serv</title>
<path class="st0" d="M3.3,9.4C2,5.6,4,1.6,7.7,0.3s7.8,0.7,9.1,4.4c0,0.1,0,0.1,0.1,0.2l14,42.5c-1.3-0.3-2.7-0.4-4.1-0.2L13.2,6.1
	c-0.7-1.7-2.7-2.4-4.4-1.7C7.4,5.1,6.7,6.6,7,8.2c0.3,1-0.2,2.1-1.2,2.4S3.7,10.4,3.3,9.4L3.3,9.4L3.3,9.4L3.3,9.4z M58.5,42.7
	l-23,7.6c0.8,1,1.5,2.1,1.9,3.3v0.1l22.2-7.3c1-0.3,1.5-1.4,1.2-2.4S59.5,42.4,58.5,42.7L58.5,42.7L58.5,42.7z M35.6,54.1
	c1.3,3.9-0.8,8.2-4.8,9.5c-3.9,1.3-8.2-0.8-9.5-4.8s0.8-8.2,4.8-9.5c0,0,0,0,0,0C30.1,48.1,34.3,50.2,35.6,54.1L35.6,54.1z M32,55.3
	c-0.7-2-2.8-3-4.8-2.4s-3,2.8-2.4,4.8c0.7,2,2.8,3,4.8,2.4c0,0,0,0,0,0C31.6,59.4,32.7,57.3,32,55.3L32,55.3z M52.2,12.9L60,36.5
	c0.1,0.5-0.1,1-0.6,1.2l-24.5,8.1c-0.5,0.1-1-0.1-1.2-0.6l-7.8-23.6c-0.1-0.5,0.1-1,0.6-1.2L51,12.2C51.5,12.1,52,12.4,52.2,12.9
	L52.2,12.9L52.2,12.9z M49,26.6L40.6,22l-4,8.7l2.6,1.2l1.8-3.7l3.1,9.4l3-1L44,27.1l3.6,2L49,26.6z"/>
</svg>
