<?xml version="1.0" encoding="utf-8"?>
<!-- Generator: Adobe Illustrator 19.2.1, SVG Export Plug-In . SVG Version: 6.00 Build 0)  -->
<svg version="1.1" id="Capa_1" xmlns="http://www.w3.org/2000/svg" xmlns:xlink="http://www.w3.org/1999/xlink" x="0px" y="0px"
	 viewBox="0 0 64 64" style="enable-background:new 0 0 64 64;" xml:space="preserve">
<style type="text/css">
	.st0{fill:#FFFFFF;}
</style>
<title>serv</title>
<path class="st0" d="M60.8,42.8L60.8,42.8V29.7c-1.4,0.5-2.9,0.6-4.3,0.2v12.9h-5.2v-8.2c0-0.8-0.6-1.4-1.4-1.4l0,0h-4.7
	c-0.8,0-1.4,0.6-1.4,1.4l0,0v8.2h-6.3v-1.3c0-0.8-0.6-1.4-1.4-1.4l0,0h-5.3c-0.8,0-1.4,0.6-1.4,1.4l0,0v1.3h-8.1v-3.7
	c0-0.8-0.6-1.4-1.4-1.4l0,0h-8c-0.8,0-1.4,0.6-1.4,1.4l0,0v3.7H7.4v-13C6.7,30,6,30.1,5.3,30.1S3.9,30,3.2,29.7v13l0,0
	c-1.7,0-3.1,1.4-3.2,3.1l0,0v14.9c0,1.7,1.4,3.1,3.1,3.1l0,0h57.7c1.7,0,3.1-1.4,3.1-3.1l0,0V45.9C63.9,44.2,62.5,42.8,60.8,42.8
	L60.8,42.8z"/>
<path class="st0" d="M14.3,14.4c-0.6,0-1,0.4-1,1v7.3c0,2.9,2.4,5.2,5.2,5.2s5.2-2.4,5.2-5.2v-7.3c0-0.6-0.4-1-1-1
	C22.7,14.4,14.3,14.4,14.3,14.4z"/>
<path class="st0" d="M27.6,14.4c-0.6,0-1,0.4-1,1v7.3c0,2.9,2.4,5.2,5.2,5.2s5.2-2.4,5.2-5.2v-7.3c0-0.6-0.4-1-1-1
	C36,14.4,27.6,14.4,27.6,14.4z"/>
<g>
	<path class="st0" d="M40.8,14.4c-0.6,0-1,0.4-1,1v7.3c0,2.9,2.4,5.2,5.2,5.2s5.2-2.4,5.2-5.2v-7.3c0-0.6-0.4-1-1-1
		C49.2,14.4,40.8,14.4,40.8,14.4z"/>
	<path class="st0" d="M1,11.8h61.9c0.6,0,1-0.4,1-1c0-0.3-0.1-0.6-0.4-0.8L50.4,0.2C50.2,0.1,50,0,49.8,0H14.2
		c-0.2,0-0.4,0.1-0.6,0.2L0.4,10c-0.4,0.3-0.5,1-0.2,1.4C0.4,11.6,0.7,11.8,1,11.8L1,11.8z"/>
</g>
<path class="st0" d="M5.3,28c2.9,0,5.2-2.4,5.2-5.2v-7.3c0-0.6-0.4-1-1-1H1c-0.6,0-1,0.4-1,1v7.3C0,25.6,2.4,28,5.3,28L5.3,28z"/>
<path class="st0" d="M62.6,14.4h-8.5c-0.6,0-1,0.4-1,1v7.3c0,2.9,2.4,5.2,5.2,5.2s5.2-2.4,5.2-5.2v-7.3
	C63.6,14.9,63.2,14.4,62.6,14.4L62.6,14.4L62.6,14.4z"/>
</svg>
