<?xml version="1.0" encoding="utf-8"?>
<!-- Generator: Adobe Illustrator 19.2.1, SVG Export Plug-In . SVG Version: 6.00 Build 0)  -->
<svg version="1.1" id="Capa_1" xmlns="http://www.w3.org/2000/svg" xmlns:xlink="http://www.w3.org/1999/xlink" x="0px" y="0px"
	 viewBox="0 0 64 64" style="enable-background:new 0 0 64 64;" xml:space="preserve">
<style type="text/css">
	.st0{fill:#FFFFFF;}
</style>
<title>serv</title>
<path class="st0" d="M3.4,28.9l4.1-2L8.4,3.6L4.9,3.5C3,3.4,1.4,4.8,1.4,6.7L0.6,25.5c0,0.9,0.3,1.8,0.9,2.4
	C2,28.5,2.7,28.8,3.4,28.9L3.4,28.9L3.4,28.9z"/>
<path class="st0" d="M22.1,19.3l-3.7-3.9c-0.1-0.2-0.2-0.4-0.1-0.6c0.1-0.2,0.3-0.3,0.5-0.4l5.4-0.6c0.2,0,0.4-0.1,0.4-0.3l2.6-4.8
	c0.2-0.3,0.5-0.4,0.8-0.2c0.1,0.1,0.2,0.1,0.2,0.2l2.2,5c0.1,0.2,0.2,0.3,0.4,0.3l1.9,0.4L43,9.4L43.1,5L12.5,3.8l-0.8,21.1
	l10.5-5.2C22.2,19.5,22.2,19.4,22.1,19.3L22.1,19.3z"/>
<path class="st0" d="M50.7,6.4c1,0,2,0.2,2.9,0.6C53,6,52,5.3,50.8,5.3l-3.5-0.1l-0.1,2.2l0.2-0.1C48.4,6.7,49.6,6.4,50.7,6.4
	L50.7,6.4L50.7,6.4z"/>
<path class="st0" d="M1.9,34.3c-0.8,0.4-1.4,1.1-1.7,1.9C-0.1,37.1,0,38,0.4,38.8l9.9,19.8c0.8,1.7,2.9,2.4,4.5,1.5l4.2-2.1
	L6.1,32.2L1.9,34.3z"/>
<path class="st0" d="M63.6,32.3l-9.9-19.8c-0.8-1.7-2.9-2.4-4.5-1.5L45,13l12.9,25.9l4.2-2.1C63.8,36,64.5,33.9,63.6,32.3
	C63.6,32.3,63.6,32.3,63.6,32.3L63.6,32.3L63.6,32.3z"/>
<path class="st0" d="M9.8,30.4l12.9,25.9l31.5-15.6L41.3,14.8L9.8,30.4z M42.2,41.6c-0.1,0.2-0.3,0.3-0.5,0.3l-6.3-0.2
	c-0.2,0-0.4,0.1-0.5,0.2l-3.7,5.1c-0.1,0.2-0.3,0.3-0.5,0.2c-0.2,0-0.4-0.2-0.5-0.3l-1.8-6c0-0.2-0.2-0.4-0.4-0.5l-6-2
	c-0.2-0.1-0.4-0.2-0.4-0.5c0-0.2,0.1-0.4,0.2-0.5L27,34c0.2-0.1,0.2-0.3,0.2-0.5v-6.3c0-0.2,0.1-0.4,0.3-0.5c0.2-0.1,0.4-0.1,0.6,0
	l5,3.8c0.1,0.1,0.3,0.1,0.5,0.1l6-2c0.2-0.1,0.4,0,0.6,0.1c0.2,0.2,0.2,0.4,0.1,0.6l-2.2,6.2l4,5.4C42.3,41.2,42.3,41.4,42.2,41.6
	L42.2,41.6L42.2,41.6z"/>
</svg>
